<?xml version="1.0" standalone="no"?>
<!DOCTYPE svg PUBLIC "-//W3C//DTD SVG 20010904//EN"
 "http://www.w3.org/TR/2001/REC-SVG-20010904/DTD/svg10.dtd">
<svg version="1.0" xmlns="http://www.w3.org/2000/svg"
 width="933.000000pt" height="1280.000000pt" viewBox="0 0 933.000000 1280.000000"
 preserveAspectRatio="xMidYMid meet">
<metadata>
Created by potrace 1.15, written by Peter Selinger 2001-2017
</metadata>
<g transform="translate(0.000000,1280.000000) scale(0.100000,-0.100000)"
fill="#000000" stroke="none">
<path d="M4595 12787 c-59 -20 -104 -45 -153 -85 l-44 -35 -27 20 c-64 48
-115 66 -181 67 -89 1 -142 -27 -158 -82 -19 -62 -25 -152 -14 -210 l10 -54
-27 6 c-130 29 -150 30 -213 4 -33 -12 -63 -59 -72 -110 -8 -46 7 -138 41
-240 22 -68 29 -78 49 -78 22 0 24 4 24 48 0 65 16 115 47 153 35 42 79 59
150 59 l58 0 56 -84 56 -85 -111 -27 c-252 -62 -517 -179 -678 -299 -81 -61
-96 -68 -211 -100 -794 -217 -1512 -884 -2033 -1890 -171 -330 -234 -506 -309
-860 -16 -72 -26 -94 -111 -220 -266 -400 -465 -809 -587 -1205 -123 -399
-177 -801 -151 -1113 7 -76 7 -77 35 -77 l29 0 0 84 c0 250 70 625 173 931 71
210 125 337 237 560 93 184 268 491 275 483 2 -2 -2 -52 -7 -113 -14 -157 -4
-430 21 -535 37 -161 80 -248 166 -333 l44 -43 -45 -129 c-57 -162 -162 -509
-204 -675 -42 -161 -39 -225 18 -395 22 -66 48 -138 57 -160 l18 -40 33 146
c102 453 313 1189 340 1189 18 0 18 -16 -1 -87 -88 -333 -203 -937 -261 -1371
-19 -140 -13 -203 32 -359 14 -47 23 -87 21 -89 -2 -2 -37 4 -78 15 -41 10
-88 21 -105 24 l-31 6 -7 -97 c-3 -53 -9 -175 -12 -270 l-7 -174 119 6 119 5
-180 -45 c-99 -26 -182 -48 -184 -50 -3 -3 104 -324 151 -453 8 -23 9 -23 36
-6 15 10 -4 -14 -42 -53 l-70 -71 124 -186 c67 -102 126 -185 130 -185 14 0
403 479 431 531 20 37 19 14 -2 -62 -34 -119 -78 -220 -126 -282 -24 -33 -43
-60 -41 -61 5 -4 411 -57 413 -54 1 2 11 20 22 41 l19 38 64 -103 c35 -57 86
-134 113 -171 27 -37 48 -70 46 -72 -8 -8 -367 -167 -586 -260 -127 -54 -230
-102 -228 -106 7 -11 184 -114 271 -157 133 -67 252 -111 387 -146 l128 -32
-83 -62 c-46 -33 -116 -78 -155 -99 l-73 -38 0 -46 0 -46 77 -17 c218 -46 534
-64 668 -37 149 30 181 47 298 155 150 139 155 142 173 124 13 -13 6 -28 -57
-124 -259 -393 -530 -759 -788 -1064 -191 -225 -235 -269 -317 -317 -101 -59
-167 -126 -191 -192 -20 -58 -57 -94 -323 -316 -313 -262 -437 -404 -461 -529
-33 -180 179 -255 606 -216 281 26 538 66 1241 195 509 93 944 159 944 143 0
-3 -11 -36 -24 -74 -36 -108 -91 -212 -151 -289 l-54 -70 48 -3 c26 -2 115 8
197 22 739 123 1502 162 1980 101 133 -17 330 -63 429 -100 66 -25 121 -33
110 -16 -10 17 -115 435 -110 440 7 7 233 -17 435 -45 96 -14 382 -63 635
-109 873 -160 1198 -205 1455 -205 263 1 393 65 393 193 0 133 -127 284 -496
591 -526 436 -998 986 -1534 1784 l-143 213 123 82 c359 240 656 545 882 905
l58 93 13 -30 c7 -17 17 -31 21 -31 4 0 91 11 192 25 101 14 189 25 197 25 22
0 17 12 -26 70 -22 29 -53 88 -69 129 -36 94 -83 248 -72 235 4 -5 43 -56 86
-114 138 -184 359 -449 368 -440 2 3 58 86 125 186 l120 181 -64 64 c-66 65
-82 91 -40 64 24 -16 24 -15 41 32 61 175 145 427 142 429 -1 1 -54 14 -117
29 -125 29 -130 31 -130 49 0 9 16 11 60 8 l60 -4 0 33 c0 53 -22 504 -25 507
-2 2 -46 -8 -99 -20 -53 -13 -96 -22 -96 -19 0 4 11 43 24 87 45 151 50 217
32 356 -58 434 -173 1038 -261 1371 -19 71 -19 87 -1 87 27 0 238 -736 340
-1189 l33 -146 18 40 c9 22 35 94 57 160 57 170 60 234 18 395 -42 166 -147
513 -204 675 l-45 129 44 43 c86 85 129 172 166 333 25 105 35 378 21 535 -5
61 -9 111 -7 113 7 8 182 -299 275 -483 112 -223 166 -350 237 -560 103 -306
173 -681 173 -931 l0 -84 29 0 c28 0 28 1 35 77 14 175 3 388 -35 623 -87 552
-328 1132 -703 1695 -85 126 -95 148 -111 220 -75 354 -138 530 -309 860 -377
728 -859 1283 -1406 1617 -102 62 -295 158 -410 203 -85 33 -327 105 -354 105
-6 0 -42 27 -81 61 -85 74 -195 147 -295 197 -41 20 -76 37 -77 37 0 0 13 41
30 90 27 76 31 105 32 187 0 94 -1 98 -30 127 -36 39 -91 54 -160 46 l-53 -7
19 56 c31 96 33 119 11 162 -25 47 -77 99 -115 113 -71 27 -180 1 -278 -65
l-52 -34 -49 46 c-27 25 -70 55 -95 66 -58 25 -155 32 -208 15z m798 -552 c48
-20 83 -65 96 -125 13 -59 14 -100 3 -100 -4 0 -45 13 -92 29 -47 16 -120 37
-162 46 l-78 19 49 51 c26 28 53 61 60 73 14 27 69 30 124 7z m872 -777 c676
-246 1281 -873 1754 -1817 64 -128 221 -475 221 -488 0 -4 -13 8 -28 27 -70
90 -306 342 -475 506 -300 293 -656 590 -1004 837 l-142 101 -32 80 c-64 163
-221 442 -318 565 -16 20 -46 80 -68 133 l-41 98 27 -7 c14 -3 62 -19 106 -35z
m-3167 -48 c-51 -90 -98 -201 -132 -315 -26 -84 -32 -95 -95 -160 -136 -141
-282 -325 -341 -432 -16 -29 -55 -67 -119 -115 -308 -234 -570 -459 -825 -708
-163 -159 -400 -412 -468 -500 -15 -19 -28 -31 -28 -27 0 13 157 360 221 488
419 836 934 1417 1522 1716 80 41 275 122 294 123 7 0 -6 -32 -29 -70z m3311
-811 c5 -16 -82 59 -88 75 -2 6 15 -5 39 -25 24 -20 46 -42 49 -50z m325 -245
c142 -116 436 -377 586 -520 398 -382 725 -745 992 -1103 84 -112 87 -119 103
-201 61 -327 76 -679 37 -864 -23 -106 -66 -207 -105 -244 l-23 -22 -13 38
c-88 250 -278 707 -418 1007 -328 701 -786 1416 -1168 1824 -44 47 -65 78 -72
109 -6 23 -9 42 -6 42 3 0 42 -30 87 -66z m-4345 -221 c-4 -27 -8 -66 -9 -88
0 -35 -14 -58 -101 -175 -298 -398 -601 -910 -842 -1425 -140 -300 -330 -757
-418 -1007 l-13 -38 -23 22 c-39 37 -82 138 -105 244 -39 183 -26 501 33 834
l20 115 113 150 c265 351 567 686 946 1050 144 138 392 364 401 365 3 0 2 -21
-2 -47z m4433 -1473 c243 -544 396 -1065 448 -1530 14 -124 14 -411 0 -525
-15 -126 -53 -278 -95 -382 -36 -90 -122 -243 -137 -243 -25 0 -310 285 -544
545 -185 204 -649 779 -665 822 -5 16 -67 38 -199 73 -80 20 -512 113 -595
127 l-50 9 45 7 c687 113 1249 494 1511 1027 50 102 85 200 114 319 l18 74 44
-94 c25 -52 72 -155 105 -229z m-4157 130 c37 -119 131 -309 206 -415 79 -110
247 -287 354 -370 259 -202 589 -353 915 -419 69 -13 136 -26 150 -28 17 -3 7
-8 -35 -17 -421 -88 -732 -161 -740 -174 -15 -22 -199 -259 -290 -372 -276
-345 -535 -636 -774 -867 -84 -82 -155 -148 -159 -148 -15 0 -102 155 -137
243 -42 104 -80 256 -95 382 -14 114 -14 401 0 525 57 509 230 1070 518 1684
35 75 48 94 53 80 4 -11 19 -57 34 -104z m-1359 -1216 c-25 -82 -53 -175 -61
-206 -11 -39 -22 -58 -32 -58 -8 0 -13 6 -11 13 3 6 35 101 73 209 38 109 70
196 72 194 2 -2 -17 -70 -41 -152z m6753 -52 c39 -112 71 -206 71 -208 0 -2
-6 -4 -14 -4 -9 0 -21 22 -31 58 -8 31 -36 123 -60 204 -44 143 -50 166 -41
157 2 -2 36 -96 75 -207z m-4083 -897 c45 -97 89 -232 115 -353 26 -124 37
-394 20 -513 -13 -87 -47 -238 -57 -248 -3 -3 -35 5 -71 18 l-66 24 -29 -34
c-48 -56 -70 -115 -70 -183 0 -34 5 -72 10 -86 8 -22 4 -30 -30 -63 -48 -47
-77 -108 -78 -163 0 -50 49 -153 90 -188 l30 -24 -58 -49 c-91 -78 -186 -151
-329 -253 -138 -99 -417 -280 -432 -280 -4 0 -15 8 -24 18 -15 16 -12 29 36
169 29 84 55 154 57 157 3 2 25 -27 50 -64 25 -38 48 -69 51 -70 4 0 10 21 14
48 3 26 29 159 56 295 188 945 407 1596 633 1880 16 20 33 37 38 37 5 0 25
-34 44 -75z m1473 13 c217 -272 460 -1028 645 -2006 19 -101 36 -186 39 -188
2 -2 25 28 52 68 l48 72 53 -155 c30 -85 54 -159 54 -166 0 -15 -140 -138
-257 -225 -8 -6 -16 8 -28 49 -19 66 -65 173 -74 173 -3 0 -14 -6 -23 -13 -16
-12 -15 -17 7 -63 27 -56 58 -171 52 -188 -3 -6 -18 -19 -35 -29 l-30 -17 -35
62 c-90 162 -230 433 -328 632 l-107 220 23 30 c58 77 53 173 -14 269 -28 39
-36 58 -30 73 26 65 -2 175 -69 270 l-37 53 -43 -24 -43 -24 -8 22 c-5 13 -18
69 -30 125 -53 256 -32 551 58 815 35 103 91 227 102 227 5 0 31 -28 58 -62z
m-3310 -719 c32 -38 32 -41 15 -54 -28 -21 -31 -19 -38 24 -3 22 -9 46 -12 55
-10 26 1 19 35 -25z m5080 -9 c-18 -77 -17 -76 -41 -53 l-21 21 33 41 c19 23
35 40 36 38 2 -1 -2 -23 -7 -47z m-5996 -356 c-33 -25 -33 -27 -12 151 17 155
24 157 27 6 2 -128 1 -145 -15 -157z m6892 190 c13 -98 39 -454 33 -458 -20
-14 -81 -46 -84 -44 -1 2 2 35 7 73 5 39 12 175 16 303 3 128 8 230 10 228 2
-2 10 -48 18 -102z m-6882 -228 c9 -9 16 -49 20 -118 4 -56 10 -120 13 -141
l7 -38 -47 28 -47 28 5 80 c3 44 6 101 6 128 0 50 14 61 43 33z m5205 -1508
c11 -26 7 -33 -59 -115 -92 -114 -230 -273 -238 -273 -3 0 -18 22 -33 49 -24
41 -28 61 -28 123 l0 74 71 35 c40 19 115 59 168 91 53 31 99 53 102 50 3 -4
10 -19 17 -34z"/>
</g>
</svg>
